<mxfile host="65bd71144e">
    <diagram id="a8MLa8tE9lUyTgugSiyy" name="Page-1">
        <mxGraphModel dx="696" dy="529" grid="1" gridSize="10" guides="1" tooltips="1" connect="1" arrows="1" fold="1" page="1" pageScale="1" pageWidth="827" pageHeight="1169" math="0" shadow="0">
            <root>
                <mxCell id="0"/>
                <mxCell id="1" parent="0"/>
                <mxCell id="8" value="" style="whiteSpace=wrap;html=1;aspect=fixed;rounded=0;fontSize=18;strokeColor=default;fillColor=none;" vertex="1" parent="1">
                    <mxGeometry x="10" y="100" width="380" height="380" as="geometry"/>
                </mxCell>
                <mxCell id="2" value="Guess the Number" style="text;html=1;align=center;verticalAlign=middle;resizable=0;points=[];autosize=1;strokeColor=none;fillColor=none;" vertex="1" parent="1">
                    <mxGeometry x="20" y="170" width="120" height="20" as="geometry"/>
                </mxCell>
                <mxCell id="3" value="&lt;font style=&quot;font-size: 27px&quot;&gt;My first number game&lt;/font&gt;" style="text;html=1;align=center;verticalAlign=middle;resizable=0;points=[];autosize=1;strokeColor=#6c8ebf;fillColor=#dae8fc;rounded=0;" vertex="1" parent="1">
                    <mxGeometry x="60" y="120" width="280" height="30" as="geometry"/>
                </mxCell>
                <mxCell id="4" value="" style="endArrow=none;html=1;fontSize=27;startArrow=none;" edge="1" parent="1" source="5">
                    <mxGeometry width="50" height="50" relative="1" as="geometry">
                        <mxPoint x="30" y="220" as="sourcePoint"/>
                        <mxPoint x="250" y="215" as="targetPoint"/>
                    </mxGeometry>
                </mxCell>
                <mxCell id="5" value="" style="ellipse;whiteSpace=wrap;html=1;aspect=fixed;rounded=0;fontSize=27;strokeColor=default;fillColor=#000000;" vertex="1" parent="1">
                    <mxGeometry x="180" y="210" width="10" height="10" as="geometry"/>
                </mxCell>
                <mxCell id="6" value="" style="endArrow=none;html=1;fontSize=27;" edge="1" parent="1" target="5">
                    <mxGeometry width="50" height="50" relative="1" as="geometry">
                        <mxPoint x="30" y="215" as="sourcePoint"/>
                        <mxPoint x="250" y="220" as="targetPoint"/>
                    </mxGeometry>
                </mxCell>
                <mxCell id="7" value="&lt;font style=&quot;font-size: 18px&quot;&gt;Show Value&lt;/font&gt;" style="rounded=1;whiteSpace=wrap;html=1;fontSize=27;strokeColor=default;fillColor=#FFFFFF;" vertex="1" parent="1">
                    <mxGeometry x="20" y="250" width="150" height="40" as="geometry"/>
                </mxCell>
                <mxCell id="9" value="5" style="text;html=1;strokeColor=none;fillColor=none;align=center;verticalAlign=middle;whiteSpace=wrap;rounded=0;fontSize=18;" vertex="1" parent="1">
                    <mxGeometry x="20" y="190" width="60" height="30" as="geometry"/>
                </mxCell>
                <mxCell id="11" value="The answer is 3! Try Again!&amp;nbsp;" style="text;html=1;strokeColor=none;fillColor=none;align=center;verticalAlign=middle;whiteSpace=wrap;rounded=0;fontSize=18;" vertex="1" parent="1">
                    <mxGeometry x="10" y="300" width="300" height="30" as="geometry"/>
                </mxCell>
            </root>
        </mxGraphModel>
    </diagram>
</mxfile>